<svg width="196" height="39" viewBox="0 0 196 39" fill="none" xmlns="http://www.w3.org/2000/svg">
<g clip-path="url(#clip0_739_3255)">
<path d="M24.2359 34.9959H2.99286L0.000976562 32.004V7.72659L2.99286 4.64844H24.2359L27.2264 7.72659V13.7528H21.2002V10.7185H6.07101V28.9258H21.2002V25.9353H27.2264V32.004L24.2359 34.9959Z" fill="#E0DEFA"/>
<path d="M57.5189 4.65234H36.2758L33.2881 7.72502V32.0024L36.2758 34.9998H57.5189L60.5163 32.0024V7.72502L57.5189 4.65234ZM54.4846 28.9311H39.3581V10.7196H54.4846V28.9311Z" fill="#E0DEFA"/>
<path d="M100.288 4.65234H82.1263L79.0919 7.72502V16.8294H73.0603V4.65234H66.9902V34.9998H73.0603V22.8994H79.0919V32.0024L82.1263 34.9998H100.288L103.323 32.0024V7.72502L100.288 4.65234ZM97.3007 28.9311H85.162V10.7196H97.3007V28.9311Z" fill="#E0DEFA"/>
<path d="M133.216 34.9959H111.973L108.981 32.004V25.9353H115.051V28.9258H130.182V22.8996H121.077V16.831H130.182V10.7185H115.051V13.7528H108.981V7.72659L111.973 4.64844H133.216L136.208 7.72659V16.831L133.216 19.8653L136.208 22.8996V32.004L133.216 34.9959Z" fill="#E0DEFA"/>
<path d="M177.404 14.1445H171.756V22.6848H177.404V14.1445Z" fill="#E0DEFA"/>
<path d="M161.172 14.1445H151.739V19.8449H161.172V14.1445Z" fill="#E0DEFA"/>
<path d="M193.002 4.65234H145.265L142.277 7.72502V32.0024L145.265 34.9998H193.002L196 32.0024V7.72502L193.002 4.65234ZM151.739 29.2817H147.954V25.497H151.739V29.2817ZM164.935 21.7383L163.066 23.6251H147.954V10.354H163.066L164.935 12.271V21.7383ZM190.627 24.6056L188.734 26.4691H181.188V29.2844H177.402V26.4691H169.833L167.969 24.6056V12.2751L169.833 10.3582H188.729L190.621 12.2751L190.627 24.6056Z" fill="#E0DEFA"/>
<path d="M186.866 14.1445H181.188V22.6848H186.866V14.1445Z" fill="#E0DEFA"/>
</g>
<defs>
<clipPath id="clip0_739_3255">
<rect width="195.999" height="30.3515" fill="white" transform="translate(0.000976562 4.64844)"/>
</clipPath>
</defs>
</svg>
